<svg width="16" height="16" viewBox="0 0 16 16" fill="none" xmlns="http://www.w3.org/2000/svg">
<path d="M8 0.5C3.58065 0.5 0 3.96875 0 8.25C0 12.5312 3.58065 16 8 16C12.4194 16 16 12.5312 16 8.25C16 3.96875 12.4194 0.5 8 0.5ZM12.5613 12.6687C11.3419 13.85 9.72258 14.5 8 14.5C6.27742 14.5 4.65806 13.85 3.43871 12.6687C2.21935 11.4875 1.54839 9.91875 1.54839 8.25C1.54839 6.58125 2.21935 5.0125 3.43871 3.83125C4.65806 2.65 6.27742 2 8 2C9.72258 2 11.3419 2.65 12.5613 3.83125C13.7806 5.0125 14.4516 6.58125 14.4516 8.25C14.4516 9.91875 13.7806 11.4875 12.5613 12.6687ZM11.0839 6.375L12.1677 5.11562C12.4452 4.79375 12.0452 4.34062 11.671 4.55312L9.09032 6.05312C8.83871 6.2 8.83871 6.55 9.09032 6.69688L11.671 8.19688C12.0419 8.40938 12.4452 7.95937 12.1677 7.63438L11.0839 6.375ZM4.32903 8.19688L6.90968 6.69688C7.16129 6.55 7.16129 6.2 6.90968 6.05312L4.32903 4.55312C3.95484 4.3375 3.55484 4.79375 3.83226 5.11562L4.91613 6.375L3.83226 7.63438C3.55161 7.95937 3.95484 8.40938 4.32903 8.19688ZM11.6903 9.25H4.30968C4.04516 9.25 3.84194 9.46875 3.87419 9.71875C4.11613 11.5688 5.77419 13 7.78064 13H8.21935C10.2258 13 11.8839 11.5688 12.1258 9.71875C12.1581 9.46875 11.9548 9.25 11.6903 9.25Z" fill="black"/>
</svg>
