<svg width="40" height="40" viewBox="0 0 40 40" fill="none" xmlns="http://www.w3.org/2000/svg">
<g clip-path="url(#clip0_2050_307)">
<path d="M34 22V28L28 22H16C14.9391 22 13.9217 21.5786 13.1716 20.8284C12.4214 20.0783 12 19.0609 12 18V4C12 1.8 13.8 0 16 0H36C37.0609 0 38.0783 0.421427 38.8284 1.17157C39.5786 1.92172 40 2.93913 40 4V18C40 19.0609 39.5786 20.0783 38.8284 20.8284C38.0783 21.5786 37.0609 22 36 22H34ZM28 26V30C28 31.0609 27.5786 32.0783 26.8284 32.8284C26.0783 33.5786 25.0609 34 24 34H12L6 40V34H4C2.93913 34 1.92172 33.5786 1.17157 32.8284C0.421427 32.0783 0 31.0609 0 30V16C0 13.8 1.8 12 4 12H8V18C8 20.1217 8.84285 22.1566 10.3431 23.6569C11.8434 25.1571 13.8783 26 16 26H28Z" fill="black"/>
</g>
<defs>
<clipPath id="clip0_2050_307">
<rect width="40" height="40" fill="white"/>
</clipPath>
</defs>
</svg>
